<svg width="136" height="178" viewBox="0 0 136 178" fill="none" xmlns="http://www.w3.org/2000/svg">
<path d="M25.2887 59.353C25.3216 58.7936 25.357 58.2823 25.39 57.8039C25.4598 56.7946 25.5195 55.9315 25.5248 55.072C25.5365 53.4661 25.5232 51.8603 25.51 50.2548C25.4876 47.5331 25.4652 44.8126 25.5641 42.0951C26.2016 24.31 34.4961 11.1758 50.7154 4.01452C66.7851 -3.08379 82.1151 -0.518321 95.4855 10.924C104.811 18.9115 109.486 29.4016 109.698 41.741C109.763 45.585 109.746 49.4289 109.729 53.3661C109.722 55.184 109.714 57.0218 109.714 58.8887C110.138 58.9478 110.533 59.0124 110.907 59.0738C111.629 59.1921 112.277 59.2983 112.925 59.3294C113.86 59.3768 114.8 59.3851 115.738 59.3935C117.294 59.4074 118.849 59.4213 120.385 59.6127C128.845 60.6751 134.999 67.4507 135.015 75.9341C135.078 104.241 135.085 132.555 135.015 160.862C134.991 169.715 128.011 176.766 119.142 177.254C117.835 177.325 116.521 177.325 115.207 177.325C108.875 177.325 102.543 177.325 96.2101 177.326C70.8177 177.327 45.4222 177.328 20.0318 177.309C19.8164 177.309 19.6005 177.31 19.3841 177.31C17.3709 177.315 15.3219 177.32 13.382 176.908C5.84293 175.31 0.263377 168.566 0.247638 160.83C0.176812 132.524 0.168942 104.209 0.247638 75.9026C0.271247 67.4114 6.46462 60.6751 14.9166 59.5969C16.3845 59.4127 17.8703 59.3945 19.3572 59.3763C19.8392 59.3704 20.3214 59.3645 20.803 59.353C21.718 59.3324 22.633 59.3387 23.6269 59.3456C24.1546 59.3492 24.7046 59.353 25.2887 59.353ZM116.476 160.453V76.6895L17.2066 76.7525V160.453H116.476ZM93.0466 58.4637C93.0493 56.8109 93.0604 55.187 93.0713 53.5839C93.0982 49.6404 93.1243 45.8226 93.0224 42.0086C92.6604 28.2526 82.3197 17.7547 68.6266 17.0937C55.5237 16.4562 44.0734 25.876 42.5467 39.2621C42.0418 43.6752 42.1723 48.1572 42.3028 52.6388C42.3595 54.5824 42.4161 56.5259 42.4208 58.4637C42.4208 58.5481 47.396 58.4965 53.1042 58.4372C60.7107 58.3583 69.6187 58.2659 69.7896 58.4637H93.0466Z" fill="#001C24"/>
<path d="M25.2887 59.353C25.3216 58.7936 25.357 58.2823 25.39 57.8039C25.4598 56.7946 25.5195 55.9315 25.5248 55.072C25.5365 53.4661 25.5232 51.8603 25.51 50.2548C25.4876 47.5331 25.4652 44.8126 25.5641 42.0951C26.2016 24.31 34.4961 11.1758 50.7154 4.01452C66.7851 -3.08379 82.1151 -0.518321 95.4855 10.924C104.811 18.9115 109.486 29.4016 109.698 41.741C109.763 45.585 109.746 49.4289 109.729 53.3661C109.722 55.184 109.714 57.0218 109.714 58.8887C110.138 58.9478 110.533 59.0124 110.907 59.0738C111.629 59.1921 112.277 59.2983 112.925 59.3294C113.86 59.3768 114.8 59.3851 115.738 59.3935C117.294 59.4074 118.849 59.4213 120.385 59.6127C128.845 60.6751 134.999 67.4507 135.015 75.9341C135.078 104.241 135.085 132.555 135.015 160.862C134.991 169.715 128.011 176.766 119.142 177.254C117.835 177.325 116.521 177.325 115.207 177.325C108.875 177.325 102.543 177.325 96.2101 177.326C70.8177 177.327 45.4222 177.328 20.0318 177.309C19.8164 177.309 19.6005 177.31 19.3841 177.31C17.3709 177.315 15.3219 177.32 13.382 176.908C5.84293 175.31 0.263377 168.566 0.247638 160.83C0.176812 132.524 0.168942 104.209 0.247638 75.9026C0.271247 67.4114 6.46462 60.6751 14.9166 59.5969C16.3845 59.4127 17.8703 59.3945 19.3572 59.3763C19.8392 59.3704 20.3214 59.3645 20.803 59.353C21.718 59.3324 22.633 59.3387 23.6269 59.3456C24.1546 59.3492 24.7046 59.353 25.2887 59.353ZM116.476 160.453V76.6895L17.2066 76.7525V160.453H116.476ZM93.0466 58.4637C93.0493 56.8109 93.0604 55.187 93.0713 53.5839C93.0982 49.6404 93.1243 45.8226 93.0224 42.0086C92.6604 28.2526 82.3197 17.7547 68.6266 17.0937C55.5237 16.4562 44.0734 25.876 42.5467 39.2621C42.0418 43.6752 42.1723 48.1572 42.3028 52.6388C42.3595 54.5824 42.4161 56.5259 42.4208 58.4637C42.4208 58.5481 47.396 58.4965 53.1042 58.4372C60.7107 58.3583 69.6187 58.2659 69.7896 58.4637H93.0466Z" stroke="#001C24"/>
</svg>
