<svg width="114" height="16" viewBox="0 0 114 16" fill="none" xmlns="http://www.w3.org/2000/svg">
<g clip-path="url(#clip0_123_182)">
<path d="M0.100563 15.3701V10.7308H0.401709L2.62691 14.558C2.78586 14.8086 2.82771 14.869 3.07031 14.9295C3.48117 15.0314 3.90261 15.0807 4.32513 15.0764C6.26593 15.0764 7.40363 14.0483 7.40363 12.6746C7.40363 11.301 6.291 10.748 4.97762 10.1605L3.30452 9.45217C1.52266 8.70055 -0.041687 7.40465 -0.041687 5.13251C-0.041687 2.36793 2.11665 0.691895 5.43776 0.691895C6.66149 0.705671 7.8807 0.847496 9.07674 1.11521V5.3312H8.77559L6.6089 1.98779C6.56323 1.90166 6.49989 1.8269 6.4233 1.7687C6.34672 1.7105 6.25877 1.67025 6.16556 1.65085C5.88887 1.60621 5.60901 1.58598 5.329 1.59036C3.6559 1.59036 2.64366 2.59255 2.64366 3.88845C2.64366 5.0202 3.34636 5.71135 4.68484 6.27291L6.50852 7.05041C8.39076 7.86251 10.0471 8.77833 10.0471 11.206C10.0471 14.0742 7.86376 16.0007 4.2415 16.0007C2.82646 15.9813 1.42009 15.7693 0.058746 15.3701" fill="#001C24"/>
<path d="M15.3091 1.73633V5.39074H18.0446V6.54838H15.3091V12.7514C15.3091 13.8227 15.8361 14.2201 16.5472 14.2201C16.8219 14.2229 17.0931 14.1558 17.3367 14.0247C17.5804 13.8936 17.789 13.7026 17.9442 13.4685L18.2035 13.5895C18.0679 14.2971 17.6835 14.9278 17.1244 15.3601C16.5652 15.7924 15.8709 15.9957 15.1752 15.9307C13.3934 15.9307 12.423 14.9113 12.423 12.9415V6.54838H11.0427V5.39074H11.9378C12.2389 5.39074 12.3226 5.39073 12.5401 5.06244L15.0498 1.73633H15.3091Z" fill="#001C24"/>
<path d="M25.063 12.9667C25.063 12.336 25.063 11.5585 25.1048 10.7464C24.8073 10.6638 24.501 10.6203 24.193 10.6168C23.9128 10.5839 23.629 10.6126 23.3604 10.701C23.0917 10.7894 22.8441 10.9355 22.6339 11.1297C22.4238 11.3239 22.2558 11.5617 22.141 11.8277C22.0261 12.0937 21.9671 12.3818 21.9677 12.673C21.9452 12.8758 21.9647 13.0811 22.0247 13.2756C22.0848 13.47 22.1842 13.6492 22.3162 13.8011C22.4482 13.953 22.61 14.0742 22.7907 14.1567C22.9715 14.2393 23.1672 14.2812 23.3648 14.2799C23.7379 14.2554 24.0956 14.1177 24.3933 13.8841C24.6909 13.6505 24.9151 13.3314 25.0379 12.9667H25.063ZM25.0965 9.89116C25.0965 9.15682 25.0965 8.49158 25.0965 8.25832C25.0965 6.91923 24.5109 6.0639 23.2979 6.0639C23.1837 6.05582 23.0691 6.05582 22.9549 6.0639C22.8789 6.07334 22.8061 6.10094 22.7422 6.14442C22.6784 6.1879 22.6252 6.24611 22.5868 6.31447L21.0727 8.90627H20.7882L19.8011 5.87386C20.9713 5.39045 22.2216 5.14689 23.4819 5.15678C26.5772 5.15678 27.8905 6.33175 27.8905 8.90627C27.8905 10.2626 27.7734 12.0596 27.7734 13.2259C27.7734 13.9775 28.0327 14.3145 28.4175 14.3145C28.5449 14.3118 28.6694 14.2755 28.7792 14.2089C28.8891 14.1424 28.9806 14.0478 29.045 13.9343L29.2708 14.1071C29.1695 14.6451 28.8853 15.1278 28.4696 15.4684C28.0539 15.809 27.534 15.985 27.0038 15.9646C26.7541 15.9834 26.5034 15.9496 26.2668 15.8654C26.0302 15.7811 25.8125 15.6481 25.6272 15.4744C25.4418 15.3008 25.2925 15.09 25.1883 14.855C25.0841 14.6199 25.0273 14.3656 25.0211 14.1071C24.7374 14.669 24.3094 15.1394 23.7842 15.467C23.259 15.7945 22.6566 15.9668 22.043 15.9646C21.6753 15.9805 21.3084 15.9173 20.9655 15.7792C20.6226 15.6411 20.3112 15.431 20.0509 15.1623C19.7907 14.8935 19.5872 14.5719 19.4535 14.2178C19.3198 13.8636 19.2587 13.4847 19.274 13.105C19.274 11.0488 20.9973 9.64923 23.4568 9.64923C24.044 9.65059 24.6287 9.72899 25.1968 9.88251" fill="#001C24"/>
<path d="M33.5957 7.92278V13.8147C33.7499 14.0916 33.9754 14.3189 34.2471 14.4714C34.5188 14.624 34.8261 14.6957 35.135 14.6787C36.3479 14.6787 37.5191 13.6074 37.5191 10.4886C37.5191 7.89684 36.5738 6.77374 35.3608 6.77374C34.9972 6.77572 34.6409 6.8797 34.3301 7.07446C34.0192 7.26922 33.7654 7.54743 33.5957 7.87954V7.92278ZM30.7012 2.44544C30.7144 2.36016 30.7068 2.27286 30.6791 2.19139C30.6513 2.10991 30.6043 2.03687 30.5422 1.97894L29.5133 0.959503V0.683039L33.5957 -0.0253906V6.70466C33.9343 6.20436 34.3869 5.79765 34.9135 5.52045C35.4401 5.24325 36.0246 5.10403 36.6156 5.11501C38.8994 5.11501 40.6227 6.95519 40.6227 10.2036C40.6227 13.9444 38.4727 15.9055 36.0886 15.9055C35.5938 15.9213 35.101 15.8355 34.6386 15.6531C34.1762 15.4707 33.7535 15.1953 33.3949 14.8429L30.9689 15.9055H30.7012V2.44544Z" fill="#001C24"/>
<path d="M41.3676 15.6971V15.4292L42.5221 14.4616C42.5892 14.4151 42.6422 14.3498 42.6748 14.2733C42.7074 14.1968 42.7183 14.1123 42.7061 14.0297V2.48763C42.7061 2.25436 42.7061 2.16794 42.5388 2.02107L41.5266 1.01028V0.73382L45.6173 0.0253906V14.0383C45.603 14.1211 45.6129 14.2064 45.6456 14.2833C45.6784 14.3602 45.7326 14.4253 45.8014 14.4703L46.9725 15.4379V15.7058L41.3676 15.6971Z" fill="#001C24"/>
<path d="M50.8538 9.64934H54.359C54.359 7.20442 53.7901 6.19362 52.6859 6.19362C51.5816 6.19362 50.9459 7.2217 50.8622 9.64934H50.8538ZM50.8622 10.5737C50.9626 13.1655 52.4015 14.0294 53.8989 14.0294C54.4752 14.0471 55.0482 13.9323 55.5762 13.6932C56.1043 13.4542 56.5743 13.0969 56.9523 12.6472L57.2116 12.7941C56.9336 13.7665 56.3388 14.61 55.5277 15.1815C54.7167 15.753 53.7394 16.0174 52.7612 15.9301C49.9922 15.9301 47.8423 14.2023 47.8423 10.6256C47.8423 7.04891 50.034 5.13965 52.7445 5.13965C55.2541 5.13965 57.1698 6.46144 57.1698 9.86532V10.5392L50.8622 10.5737Z" fill="#001C24"/>
<path d="M64.4477 6.83367C64.0129 6.86219 63.5946 7.01672 63.241 7.27956C62.8873 7.54239 62.6126 7.90285 62.4483 8.31961V14.013C62.4346 14.0961 62.4438 14.1813 62.4749 14.2592C62.506 14.3371 62.5577 14.4046 62.624 14.4536L63.8035 15.4125V15.6803H58.1987V15.4125L59.3447 14.4536C59.4134 14.4064 59.4672 14.3395 59.4999 14.2613C59.5326 14.1831 59.5426 14.0969 59.5288 14.013V2.47083C59.5288 2.23757 59.5288 2.15119 59.3698 2.00433L58.3576 0.984841V0.70843L62.4483 0V7.0583C62.7639 6.46048 63.2331 5.96425 63.8044 5.6243C64.3756 5.28436 65.0267 5.11392 65.6858 5.13175C67.9444 5.13175 69.032 6.66089 69.032 9.65009C69.032 10.7386 69.032 13.1059 68.9651 14.0216C68.9546 14.1029 68.9662 14.1855 68.9987 14.2603C69.0312 14.3351 69.0833 14.3991 69.1491 14.445L70.3203 15.4039V15.6717H64.7154V15.4039L65.8698 14.445C65.9431 14.4018 66.0018 14.3363 66.0377 14.2574C66.0736 14.1786 66.0851 14.0902 66.0706 14.0043C66.0706 13.4773 66.0706 10.8855 66.0706 9.6328C66.0706 7.51617 65.3679 6.82502 64.3975 6.82502" fill="#001C24"/>
<path d="M78.2091 10.5824C78.2091 7.75733 77.5064 6.14182 76.1261 6.14182C74.7458 6.14182 74.1016 7.67093 74.1016 10.4614C74.1016 13.2519 74.8295 14.9193 76.2098 14.9193C77.5901 14.9193 78.2091 13.347 78.2091 10.5479V10.5824ZM70.8642 10.5479C70.8642 7.09218 73.0309 5.07056 76.2265 5.07056C79.4221 5.07056 81.4466 7.01437 81.4466 10.3837C81.4466 13.753 79.2883 15.861 76.1261 15.861C72.964 15.861 70.8642 13.9432 70.8642 10.5479Z" fill="#001C24"/>
<path d="M89.8875 15.6973V13.6671C89.5832 14.3542 89.0925 14.9354 88.4748 15.3402C87.8571 15.745 87.139 15.9561 86.4075 15.9479C84.2575 15.9479 83.2286 14.5483 83.2286 11.6282C83.2286 10.436 83.2286 8.37113 83.2286 7.44672C83.2394 7.36207 83.2297 7.27603 83.2006 7.19615C83.1714 7.11627 83.1235 7.04505 83.0613 6.98886L81.8901 5.69297V5.4165H86.1983C86.1983 7.28259 86.1565 10.5051 86.1565 11.2567C86.1565 12.8636 86.2987 14.2631 87.679 14.2631C88.1114 14.226 88.5259 14.068 88.8781 13.8063C89.2303 13.5445 89.5069 13.1889 89.6784 12.7772V7.44672C89.6924 7.36025 89.6827 7.27144 89.6501 7.19045C89.6176 7.10947 89.5636 7.03961 89.4943 6.98886L88.3231 5.69297V5.4165H92.5728V13.8053C92.5624 13.8916 92.5739 13.9791 92.6062 14.0594C92.6384 14.1397 92.6904 14.2099 92.7569 14.2631L93.8695 15.4381V15.706L89.8875 15.6973Z" fill="#001C24"/>
<path d="M99.1144 12.0684L97.5166 11.5241C96.8387 11.3593 96.2341 10.9638 95.8001 10.4013C95.3662 9.83873 95.128 9.14176 95.124 8.42253C95.124 6.43549 96.7971 5.13966 99.3068 5.13966C100.52 5.13824 101.726 5.32159 102.887 5.68388L101.942 8.61268H101.674L100.277 6.28865C100.177 6.1245 100.118 6.08129 99.976 6.06402C99.7826 6.03017 99.5865 6.01572 99.3904 6.02083C98.3197 6.02083 97.5333 6.58239 97.5333 7.48088C97.5333 8.37936 98.2945 8.71634 99.2064 9.03599L100.879 9.61476C102.176 10.0554 103.23 10.833 103.23 12.3967C103.23 14.7207 101.289 15.9301 98.5957 15.9301C97.3114 15.9285 96.0374 15.6945 94.8312 15.239L95.8435 12.2066H96.1111L97.3995 14.617C97.5249 14.8416 97.5668 14.9107 97.7257 14.9539C98.0387 15.0261 98.3587 15.0609 98.6793 15.0576C99.7501 15.0576 100.737 14.5737 100.762 13.4852C100.762 12.7335 100.135 12.4226 99.0893 12.0684" fill="#001C24"/>
<path d="M107.472 9.64934H110.968C110.968 7.20442 110.4 6.19362 109.295 6.19362C108.191 6.19362 107.555 7.2217 107.48 9.64934H107.472ZM107.48 10.5737C107.58 13.1655 109.019 14.0294 110.517 14.0294C111.093 14.0484 111.667 13.9342 112.195 13.695C112.723 13.4559 113.193 13.0978 113.57 12.6472L113.83 12.7941C113.169 14.8675 111.646 15.9301 109.379 15.9301C106.61 15.9301 104.46 14.2023 104.46 10.6256C104.46 7.04891 106.652 5.13965 109.362 5.13965C111.872 5.13965 113.796 6.46144 113.796 9.86532V10.5392L107.48 10.5737Z" fill="#001C24"/>
</g>
<defs>
<clipPath id="clip0_123_182">
<rect width="113.846" height="16" fill="white"/>
</clipPath>
</defs>
</svg>
