<svg width="61" height="60" viewBox="0 0 61 60" fill="none" xmlns="http://www.w3.org/2000/svg">
<g clip-path="url(#clip0_1_3144)">
<circle cx="30.5" cy="30" r="30" fill="#001C24"/>
<path d="M20.5 31.6666C19.5834 31.6666 18.8334 32.4166 18.8334 33.3333C18.8334 34.25 19.5834 35 20.5 35C21.4167 35 22.1667 34.25 22.1667 33.3333C22.1667 32.4166 21.4167 31.6666 20.5 31.6666ZM20.5 38.3333C19.5834 38.3333 18.8334 39.0833 18.8334 40C18.8334 40.9166 19.5834 41.6666 20.5 41.6666C21.4167 41.6666 22.1667 40.9166 22.1667 40C22.1667 39.0833 21.4167 38.3333 20.5 38.3333ZM20.5 25C19.5834 25 18.8334 25.75 18.8334 26.6666C18.8334 27.5833 19.5834 28.3333 20.5 28.3333C21.4167 28.3333 22.1667 27.5833 22.1667 26.6666C22.1667 25.75 21.4167 25 20.5 25ZM15.5 25.8333C15.0334 25.8333 14.6667 26.2 14.6667 26.6666C14.6667 27.1333 15.0334 27.5 15.5 27.5C15.9667 27.5 16.3334 27.1333 16.3334 26.6666C16.3334 26.2 15.9667 25.8333 15.5 25.8333ZM20.5 18.3333C19.5834 18.3333 18.8334 19.0833 18.8334 20C18.8334 20.9166 19.5834 21.6666 20.5 21.6666C21.4167 21.6666 22.1667 20.9166 22.1667 20C22.1667 19.0833 21.4167 18.3333 20.5 18.3333ZM45.5 27.5C45.9667 27.5 46.3334 27.1333 46.3334 26.6666C46.3334 26.2 45.9667 25.8333 45.5 25.8333C45.0334 25.8333 44.6667 26.2 44.6667 26.6666C44.6667 27.1333 45.0334 27.5 45.5 27.5ZM33.8334 21.6666C34.75 21.6666 35.5 20.9166 35.5 20C35.5 19.0833 34.75 18.3333 33.8334 18.3333C32.9167 18.3333 32.1667 19.0833 32.1667 20C32.1667 20.9166 32.9167 21.6666 33.8334 21.6666ZM33.8334 15.8333C34.3 15.8333 34.6667 15.4666 34.6667 15C34.6667 14.5333 34.3 14.1666 33.8334 14.1666C33.3667 14.1666 33 14.5333 33 15C33 15.4666 33.3667 15.8333 33.8334 15.8333ZM15.5 32.5C15.0334 32.5 14.6667 32.8666 14.6667 33.3333C14.6667 33.8 15.0334 34.1666 15.5 34.1666C15.9667 34.1666 16.3334 33.8 16.3334 33.3333C16.3334 32.8666 15.9667 32.5 15.5 32.5ZM27.1667 44.1666C26.7 44.1666 26.3334 44.5333 26.3334 45C26.3334 45.4666 26.7 45.8333 27.1667 45.8333C27.6334 45.8333 28 45.4666 28 45C28 44.5333 27.6334 44.1666 27.1667 44.1666ZM27.1667 15.8333C27.6334 15.8333 28 15.4666 28 15C28 14.5333 27.6334 14.1666 27.1667 14.1666C26.7 14.1666 26.3334 14.5333 26.3334 15C26.3334 15.4666 26.7 15.8333 27.1667 15.8333ZM27.1667 21.6666C28.0834 21.6666 28.8334 20.9166 28.8334 20C28.8334 19.0833 28.0834 18.3333 27.1667 18.3333C26.25 18.3333 25.5 19.0833 25.5 20C25.5 20.9166 26.25 21.6666 27.1667 21.6666ZM27.1667 30.8333C25.7834 30.8333 24.6667 31.95 24.6667 33.3333C24.6667 34.7166 25.7834 35.8333 27.1667 35.8333C28.55 35.8333 29.6667 34.7166 29.6667 33.3333C29.6667 31.95 28.55 30.8333 27.1667 30.8333ZM40.5 31.6666C39.5834 31.6666 38.8334 32.4166 38.8334 33.3333C38.8334 34.25 39.5834 35 40.5 35C41.4167 35 42.1667 34.25 42.1667 33.3333C42.1667 32.4166 41.4167 31.6666 40.5 31.6666ZM40.5 38.3333C39.5834 38.3333 38.8334 39.0833 38.8334 40C38.8334 40.9166 39.5834 41.6666 40.5 41.6666C41.4167 41.6666 42.1667 40.9166 42.1667 40C42.1667 39.0833 41.4167 38.3333 40.5 38.3333ZM40.5 25C39.5834 25 38.8334 25.75 38.8334 26.6666C38.8334 27.5833 39.5834 28.3333 40.5 28.3333C41.4167 28.3333 42.1667 27.5833 42.1667 26.6666C42.1667 25.75 41.4167 25 40.5 25ZM40.5 18.3333C39.5834 18.3333 38.8334 19.0833 38.8334 20C38.8334 20.9166 39.5834 21.6666 40.5 21.6666C41.4167 21.6666 42.1667 20.9166 42.1667 20C42.1667 19.0833 41.4167 18.3333 40.5 18.3333ZM45.5 32.5C45.0334 32.5 44.6667 32.8666 44.6667 33.3333C44.6667 33.8 45.0334 34.1666 45.5 34.1666C45.9667 34.1666 46.3334 33.8 46.3334 33.3333C46.3334 32.8666 45.9667 32.5 45.5 32.5ZM33.8334 38.3333C32.9167 38.3333 32.1667 39.0833 32.1667 40C32.1667 40.9166 32.9167 41.6666 33.8334 41.6666C34.75 41.6666 35.5 40.9166 35.5 40C35.5 39.0833 34.75 38.3333 33.8334 38.3333ZM33.8334 44.1666C33.3667 44.1666 33 44.5333 33 45C33 45.4666 33.3667 45.8333 33.8334 45.8333C34.3 45.8333 34.6667 45.4666 34.6667 45C34.6667 44.5333 34.3 44.1666 33.8334 44.1666ZM27.1667 24.1666C25.7834 24.1666 24.6667 25.2833 24.6667 26.6666C24.6667 28.05 25.7834 29.1666 27.1667 29.1666C28.55 29.1666 29.6667 28.05 29.6667 26.6666C29.6667 25.2833 28.55 24.1666 27.1667 24.1666ZM27.1667 38.3333C26.25 38.3333 25.5 39.0833 25.5 40C25.5 40.9166 26.25 41.6666 27.1667 41.6666C28.0834 41.6666 28.8334 40.9166 28.8334 40C28.8334 39.0833 28.0834 38.3333 27.1667 38.3333ZM33.8334 30.8333C32.45 30.8333 31.3334 31.95 31.3334 33.3333C31.3334 34.7166 32.45 35.8333 33.8334 35.8333C35.2167 35.8333 36.3334 34.7166 36.3334 33.3333C36.3334 31.95 35.2167 30.8333 33.8334 30.8333ZM33.8334 24.1666C32.45 24.1666 31.3334 25.2833 31.3334 26.6666C31.3334 28.05 32.45 29.1666 33.8334 29.1666C35.2167 29.1666 36.3334 28.05 36.3334 26.6666C36.3334 25.2833 35.2167 24.1666 33.8334 24.1666Z" fill="white"/>
</g>
<defs>
<clipPath id="clip0_1_3144">
<rect width="60" height="60" fill="white" transform="translate(0.5)"/>
</clipPath>
</defs>
</svg>
