<svg width="198" height="81" viewBox="0 0 198 81" fill="none" xmlns="http://www.w3.org/2000/svg">
<path d="M85.2791 13.3306C85.2791 13.2963 85.2515 13.2722 85.2446 13.2722C85.2523 13.2937 85.264 13.3135 85.2791 13.3306Z" fill="#001C24"/>
<path d="M111.142 13.3309C111.169 13.2931 111.183 13.2691 111.176 13.2725C111.162 13.2902 111.15 13.3099 111.142 13.3309Z" fill="#001C24"/>
<path d="M111.141 13.328C110.506 14.246 100.867 26.4564 100.867 26.4564L98.2097 9.9187L95.5527 26.4564C95.5527 26.4564 85.9137 14.2427 85.2781 13.328C85.7691 14.3259 91.2007 28.6284 91.2007 28.6284L76.083 22.5582L88.9574 32.7961C90.3111 31.8028 91.809 31.0178 93.4003 30.4678C96.4908 29.2632 99.9285 29.2632 103.019 30.4678C104.611 31.0184 106.11 31.8033 107.465 32.7961L120.34 22.5582L105.205 28.6284C105.205 28.6284 110.654 14.3325 111.141 13.328Z" fill="#001C24"/>
<path d="M27.7264 41.9968H24V57.6332H35.1255V54.7028H27.7264V41.9968Z" fill="#001C24"/>
<path d="M40.7724 41.9968H37.4058V57.6332H40.7724V41.9968Z" fill="#001C24"/>
<path d="M56.7443 53.4111C56.7443 51.442 55.3991 49.8255 53.7174 49.566C55.2107 49.2633 56.445 47.9495 56.445 45.9804C56.445 43.8949 54.9047 41.989 51.8946 41.989H43.5672V57.622H52.1468C55.1569 57.632 56.7443 55.756 56.7443 53.4111ZM46.9338 44.8429H51.1513C52.2881 44.8429 53.0011 45.568 53.0011 46.5525C53.0011 47.5371 52.2881 48.2422 51.1513 48.2422H46.9338V44.8429ZM46.9338 54.7349V51.116H51.269C52.6143 51.116 53.3071 51.9575 53.3071 52.9421C53.3071 54.0697 52.5504 54.7482 51.269 54.7482L46.9338 54.7349Z" fill="#001C24"/>
<path d="M58.6111 57.6332H69.8005V54.7028H61.9777V51.1638H69.6324V48.2334H61.9777V44.9272H69.8005V41.9968H58.6111V57.6332Z" fill="#001C24"/>
<path d="M85.5944 47.036C85.5944 44.1289 83.5765 41.9968 80.2839 41.9968H72.8848V57.6298H76.248V52.0751H78.7132L81.8209 57.6298H85.6818L82.1269 51.676C83.8422 51.2802 85.5944 49.8033 85.5944 47.036ZM79.7861 49.1481H76.2547V44.9272H79.7861C81.1314 44.9272 82.1404 45.7255 82.1404 47.036C82.1404 48.3465 81.1381 49.1481 79.7861 49.1481Z" fill="#001C24"/>
<path d="M99.4134 41.9968H86.8013V44.9272H91.4224V57.6332H94.8125V44.9272H99.4134V41.9968Z" fill="#001C24"/>
<path d="M108.672 48.28L104.738 41.9968H100.897L106.988 51.2336V57.6332H110.354V51.2336L116.398 41.9968H112.56L108.672 48.28Z" fill="#001C24"/>
<path d="M138.208 54.0705L135.316 52.6868C134.963 53.3645 134.431 53.9343 133.775 54.3351C133.12 54.736 132.367 54.9527 131.596 54.9619C128.727 54.9619 126.642 52.7799 126.642 49.8263C126.642 46.8727 128.727 44.6907 131.596 44.6907C132.367 44.7038 133.119 44.9219 133.775 45.3223C134.431 45.7227 134.965 46.2904 135.322 46.9658L138.215 45.5588C137.102 43.613 135.087 41.7371 131.603 41.7371C126.861 41.7371 123.195 45.02 123.195 49.8263C123.195 54.6326 126.867 57.9156 131.603 57.9156C135.08 57.9156 137.071 56.0163 138.208 54.0705Z" fill="#001C24"/>
<path d="M143.253 41.9968H139.886V57.6332H143.253V41.9968Z" fill="#001C24"/>
<path d="M144.739 44.9272H149.361V57.6332H152.751V44.9272H157.348V41.9968H144.739V44.9272Z" fill="#001C24"/>
<path d="M170.159 41.9968L166.271 48.28L162.336 41.9968H158.499L164.59 51.2336V57.6332H167.956V51.2336L174 41.9968H170.159Z" fill="#001C24"/>
<path d="M54.851 69.208L53.2803 64.6511H51.4138L53.8185 70.9675H55.8868L58.2983 64.6511H56.4317L54.851 69.208Z" fill="#001C24"/>
<path d="M64.2039 70.9675H68.8889V69.5473H65.8519V68.4795H68.8216V67.0559H65.8519V66.0714H68.8889V64.6511H64.2039V70.9675Z" fill="#001C24"/>
<path d="M79.4966 68.127L76.9136 64.6511H75.2185V70.9675H76.8632V67.3121L79.5638 70.9675H81.1546V64.6511H79.4966V68.127Z" fill="#001C24"/>
<path d="M87.3331 66.0714H89.1223V70.9675H90.7703V66.0714H92.5528V64.6511H87.3331V66.0714Z" fill="#001C24"/>
<path d="M102.898 68.3565C102.91 68.5324 102.883 68.7088 102.819 68.8734C102.755 69.0379 102.656 69.1867 102.527 69.3093C102.399 69.4319 102.246 69.5254 102.077 69.5831C101.909 69.6409 101.73 69.6616 101.552 69.6437C100.654 69.6437 100.207 69.1049 100.207 68.3565V64.6511H98.5254V68.413C98.5254 69.9663 99.494 71.074 101.552 71.074C103.611 71.074 104.559 69.963 104.559 68.3931V64.6511H102.894L102.898 68.3565Z" fill="#001C24"/>
<path d="M116.371 66.7533C116.371 65.5791 115.567 64.6511 114.148 64.6511H110.949V70.9709H112.597V68.8521H113.442L114.511 70.9709H116.398L115.096 68.6425C115.485 68.5037 115.818 68.2453 116.048 67.9053C116.277 67.5653 116.39 67.1615 116.371 66.7533ZM113.899 67.4185H112.597V66.0614H113.899C113.997 66.0478 114.097 66.0552 114.192 66.083C114.287 66.1109 114.375 66.1586 114.45 66.2229C114.525 66.2872 114.585 66.3666 114.626 66.4558C114.667 66.545 114.688 66.6419 114.688 66.74C114.688 66.838 114.667 66.9349 114.626 67.0241C114.585 67.1133 114.525 67.1927 114.45 67.257C114.375 67.3214 114.287 67.3691 114.192 67.3969C114.097 67.4248 113.997 67.4321 113.899 67.4185Z" fill="#001C24"/>
<path d="M122.728 70.9675H127.409V69.5473H124.376V68.4795H127.342V67.0559H124.376V66.0714H127.409V64.6511H122.728V70.9675Z" fill="#001C24"/>
<path d="M136.574 66.9518C135.962 66.8121 135.474 66.7056 135.474 66.4029C135.474 66.1003 135.686 65.9473 136.163 65.9473C136.844 65.9535 137.502 66.188 138.03 66.6125L138.931 65.4483C138.203 64.8523 137.28 64.539 136.335 64.5669C134.697 64.5669 133.789 65.5149 133.789 66.5626C133.789 68.1159 135.262 68.402 136.315 68.6082C136.93 68.7346 137.408 68.8377 137.408 69.1703C137.408 69.5029 137.071 69.6892 136.5 69.6892C135.735 69.6895 135.001 69.3906 134.458 68.8577L133.587 70.0784C133.97 70.4216 134.417 70.6865 134.904 70.8577C135.39 71.029 135.906 71.1033 136.422 71.0762C138.134 71.0762 139.083 70.2314 139.083 68.9641C139.083 67.484 137.63 67.1713 136.574 66.9518Z" fill="#001C24"/>
</svg>
