<svg width="168" height="56" viewBox="0 0 168 56" fill="none" xmlns="http://www.w3.org/2000/svg">
<path d="M0 0.429228C0.168 0.429228 0.336 0.457845 0.532 0.457845C16.156 0.457845 31.78 0.457845 47.432 0.457845C47.6 0.457845 47.74 0.457845 47.992 0.457845C46.508 4.60705 45.024 8.67042 43.512 12.791C37.408 9.67195 31.36 6.55289 25.228 3.43383C25.228 14.7082 25.228 25.8968 25.228 37.1426C24.444 37.1426 23.66 37.1426 22.876 37.1426C22.876 25.954 22.876 14.7368 22.876 3.43383C16.744 6.5815 10.668 9.70057 4.536 12.8196C4.396 12.419 4.256 12.047 4.116 11.6464C2.772 8.04088 1.484 4.46398 0.168 0.858457C0.14 0.801226 0.0560001 0.686765 0.0280001 0.572304C1.06394e-07 0.543689 0 0.515074 0 0.429228ZM3.416 2.94737C4.2 5.09351 4.984 7.23966 5.768 9.3858C9.968 7.23966 14.112 5.09351 18.256 2.97599C18.256 2.94737 18.228 2.94737 18.228 2.91876C13.328 2.94737 8.428 2.94737 3.416 2.94737ZM44.492 2.94737C39.536 2.94737 34.58 2.94737 29.652 2.94737V2.97599C33.824 5.09351 37.968 7.23966 42.14 9.3858C42.924 7.23966 43.68 5.12213 44.492 2.94737ZM151.592 0.0858465C151.592 6.69596 151.592 13.3633 151.592 20.0307C152.348 20.1451 153.104 20.2023 153.888 20.3168C153.86 20.603 153.832 20.8891 153.776 21.1753C151.732 21.1753 149.688 21.1753 147.616 21.1753C147.588 20.9177 147.504 20.6316 147.476 20.3168C148.064 20.2023 148.652 20.1451 149.24 20.0307C149.24 16.3393 149.24 12.6193 149.24 8.89934C147.196 8.89934 145.152 8.89934 143.08 8.89934C143.08 12.6193 143.08 16.3107 143.08 19.9734C143.92 20.0307 144.704 20.0879 145.572 20.1451C145.544 20.4885 145.46 20.7747 145.432 21.0894C143.192 21.0894 141.008 21.0894 138.74 21.0894C138.712 20.8319 138.628 20.5457 138.6 20.231C139.328 20.1165 140 20.0593 140.728 19.9448C140.728 16.2535 140.728 12.5335 140.728 8.81349C139.888 8.81349 139.076 8.81349 138.208 8.81349C138.096 8.49873 138.208 8.2698 138.348 8.0695C138.74 7.46858 139.216 7.21104 139.86 7.3255C140.14 7.35411 140.42 7.3255 140.7 7.3255C140.728 6.83904 140.756 6.32397 140.84 5.83751C141.008 4.75013 141.54 3.77721 142.24 2.94737C142.94 2.08891 143.612 1.25907 144.312 0.371999C144.452 0.200307 144.62 0.114464 144.872 0.114464C146.468 0.114464 148.064 0.0858492 149.632 0.0572339C149.8 0.0572339 149.968 0.0286152 150.164 0C150.64 0.0858457 151.116 0.0858465 151.592 0.0858465ZM149.24 1.85999C149.184 1.85999 149.1 1.85999 149.072 1.88861C148.064 2.37507 147 2.46091 145.88 2.37506C145.46 2.34645 145.012 2.37506 144.592 2.37506C144.452 2.37506 144.312 2.4323 144.2 2.54676C143.5 3.23352 143.136 4.03475 143.136 5.03628C143.108 5.83751 143.136 6.69596 143.136 7.5258C145.18 7.5258 147.224 7.5258 149.268 7.5258C149.24 5.6372 149.24 3.77721 149.24 1.85999ZM29.932 25.0669C29.932 24.2085 29.932 23.4359 29.932 22.6346C32.312 22.6346 34.692 22.6346 37.072 22.6346C37.072 31.5626 37.072 40.4905 37.072 49.4185C28.336 49.4185 19.628 49.4185 10.864 49.4185C10.864 40.4905 10.864 31.5626 10.864 22.6346C13.216 22.6346 15.568 22.6346 17.976 22.6346C17.976 23.4359 17.976 24.2371 17.976 25.0383C16.38 25.0383 14.812 25.0383 13.216 25.0383C13.216 32.3638 13.216 39.6607 13.216 46.9576C20.356 46.9576 27.496 46.9576 34.664 46.9576C34.664 39.6607 34.664 32.3638 34.664 25.0383C33.124 25.0669 31.528 25.0669 29.932 25.0669ZM53.592 21.2039C53.564 20.9177 53.48 20.6316 53.452 20.2882C53.9 20.231 54.348 20.1451 54.796 20.0879C55.244 20.0307 55.692 19.9448 56.196 19.9162C56.196 19.7731 56.196 19.63 56.196 19.5156C56.196 13.7353 56.196 8.01226 56.196 2.23199C56.196 1.88861 56.084 1.77415 55.776 1.74553C55.104 1.6883 54.432 1.57384 53.76 1.45938C53.648 1.45938 53.592 1.43076 53.48 1.40215C53.508 1.08738 53.592 0.801229 53.62 0.543692C54.236 0.543692 54.88 0.543692 55.496 0.543692C58.156 0.543692 60.844 0.515075 63.532 0.515075C65.296 0.515075 66.976 0.858458 68.488 1.80276C70.42 2.97598 71.596 4.6929 72.156 6.86765C72.772 9.38579 72.744 11.9039 72.016 14.3648C71.12 17.4839 68.992 19.4297 66.052 20.4599C64.288 21.0894 62.496 21.2325 60.648 21.1753C58.632 21.118 56.616 21.1753 54.628 21.1753C54.264 21.2039 53.956 21.2039 53.592 21.2039ZM58.8 1.83138C58.8 7.78334 58.8 13.7067 58.8 19.6587C59.808 19.7159 60.816 19.7731 61.824 19.9162C64.428 20.231 67.088 18.9719 68.432 16.1962C69.888 13.2202 70.028 10.1012 69.048 6.9535C68.208 4.3209 66.444 2.6326 63.784 1.94584C62.132 1.51661 60.48 1.77415 58.8 1.83138ZM98.56 21.2039C98.224 21.0036 97.86 20.8605 97.524 20.603C96.796 20.1165 96.404 19.0577 96.628 18.1993C96.656 18.0848 96.768 18.0276 96.88 17.9417C97.72 17.3408 98.532 16.7113 99.456 16.0531C99.288 15.9959 99.148 15.9101 98.98 15.8528C95.648 14.3648 96.04 10.6735 97.804 8.98518C98.952 7.8978 100.38 7.18242 101.864 6.9535C103.32 6.75319 104.692 7.23966 105.84 8.24119C105.896 8.29842 105.98 8.38426 106.092 8.44149C106.568 7.98365 107.016 7.52581 107.52 7.06796C107.632 6.9535 107.828 6.89627 107.968 6.89627C108.416 6.86766 108.864 6.89627 109.312 6.89627C109.312 7.64027 109.312 8.32703 109.312 9.04241C108.416 9.0138 107.52 8.98519 106.848 9.52887C106.904 10.1584 107.016 10.7593 107.016 11.3602C106.988 12.791 106.288 13.8784 105.168 14.7368C104.104 15.5381 102.872 15.9673 101.612 16.3393C101.5 16.3679 101.36 16.3679 101.276 16.3393C100.8 16.1962 100.492 16.4538 100.212 16.8258C99.904 17.255 99.512 17.627 99.176 18.0562C98.868 18.4568 98.896 18.9147 99.316 19.1436C99.512 19.258 99.764 19.3153 100.016 19.3153C101.752 19.3153 103.516 19.3153 105.252 19.3153C105.812 19.3153 106.316 19.3725 106.876 19.5156C108.528 19.9448 109.34 21.4328 108.808 23.0925C108.416 24.3229 107.604 25.1814 106.624 25.9254C105.196 27.0128 103.6 27.7568 101.92 28.2146C101.36 28.3577 100.772 28.2432 100.184 28.2146C99.26 28.1574 98.308 27.9285 97.44 27.4706C95.788 26.5835 95.508 25.0956 95.564 23.7506C95.564 23.6362 95.704 23.4931 95.816 23.4359C96.656 22.7205 97.468 22.0051 98.308 21.3183C98.364 21.347 98.448 21.2611 98.56 21.2039ZM101.752 26.7839C102.956 26.7839 104.048 26.4405 104.972 25.6965C105.672 25.1242 106.176 24.466 106.372 23.5503C106.624 22.463 106.232 21.862 105.168 21.6045C104.86 21.5473 104.552 21.49 104.272 21.49C102.788 21.4614 101.332 21.4614 99.848 21.4614C99.736 21.4614 99.568 21.49 99.512 21.5759C99.036 22.2626 98.504 22.8922 98.056 23.5503C97.72 24.1226 97.776 24.7236 98.168 25.2386C98.364 25.5534 98.7 25.8109 99.008 26.0112C99.792 26.6122 100.772 26.7552 101.752 26.7839ZM98.84 11.2744C98.868 11.6178 98.896 11.9898 98.98 12.3045C99.316 14.1359 100.548 15.1375 102.312 15.023C103.348 14.9658 104.244 14.3362 104.496 13.3633C104.888 11.8181 104.608 10.3587 103.6 9.09965C102.872 8.24119 101.892 8.04088 100.828 8.29842C99.848 8.49872 99.26 9.21411 99.036 10.2156C98.896 10.559 98.868 10.9596 98.84 11.2744ZM88.228 48.9607C88.228 50.8779 88.228 52.7951 88.228 54.7409C89.264 54.8554 90.272 54.9412 91.336 55.0557C91.308 55.3418 91.28 55.5994 91.196 55.8283C91.168 55.8855 91.028 56 90.916 56C89.796 56 88.704 55.9428 87.612 55.9428C86.464 55.9428 85.316 55.9714 84.168 56C84.056 56 84 56 83.86 56C83.832 55.6852 83.748 55.3991 83.692 55.0843C84.392 54.9698 85.092 54.884 85.792 54.7695C85.792 48.9034 85.792 42.9801 85.792 37.0567C85.092 37.1139 84.392 37.1998 83.692 37.257C83.664 36.9709 83.58 36.6847 83.524 36.3413C84.98 36.0266 86.352 35.3398 87.92 35.3112C87.948 36.0838 88.032 36.8564 88.06 37.6863C88.172 37.629 88.228 37.5718 88.312 37.5432C89.348 36.742 90.412 35.9121 91.476 35.1109C91.588 35.0537 91.728 34.9678 91.812 34.9678C93.464 34.9678 94.976 35.4257 96.096 36.7133C96.964 37.6576 97.356 38.8309 97.552 40.0899C97.748 41.5207 97.748 42.9228 97.412 44.3536C96.852 46.4997 95.536 48.045 93.52 48.8462C92.624 49.1896 91.616 49.4471 90.636 49.6188C89.852 49.7619 89.068 49.4757 88.396 49.1323C88.34 49.1037 88.256 49.0751 88.2 49.0179C88.256 48.9607 88.256 48.9607 88.228 48.9607ZM88.228 42.7511C88.228 43.8958 88.228 45.0118 88.228 46.1564C88.228 46.2994 88.284 46.4997 88.368 46.6142C89.208 47.7874 91 48.4456 92.4 48.1022C93.716 47.7588 94.444 46.7859 94.892 45.5554C95.424 44.0961 95.424 42.6081 95.228 41.1201C95.088 40.0613 94.836 39.0598 94.248 38.1727C93.408 36.885 92.232 36.5416 90.888 37.2856C89.992 37.7721 89.152 38.4302 88.312 39.0312C88.2 39.0884 88.172 39.2887 88.172 39.4318C88.2 40.4905 88.228 41.6351 88.228 42.7511ZM71.456 34.0235C71.008 34.0235 70.616 34.0235 70.196 34.0235C70 34.0235 69.916 33.9663 69.86 33.766C69.608 33.0506 69.412 32.3352 69.132 31.6484C69.02 31.3909 68.88 31.1906 68.712 31.0189C65.464 28.186 58.688 28.6152 57.064 34.8533C56.196 38.1727 56.476 41.4348 58.352 44.4108C59.976 46.9576 62.3 48.3025 65.352 48.1594C66.612 48.1022 67.676 47.4727 68.6 46.6714C68.908 46.3853 69.048 45.8988 69.216 45.4982C69.524 44.8973 69.832 44.2678 70.14 43.6668C70.196 43.5524 70.392 43.4665 70.532 43.4093C70.924 43.3807 71.316 43.4093 71.792 43.4093C71.512 44.697 71.26 45.956 71.008 47.1865C70.98 47.2437 70.868 47.3582 70.812 47.3868C68.768 48.3883 66.64 49.1896 64.4 49.5902C63.28 49.7905 62.216 49.5616 61.152 49.2468C56.98 48.0736 54.264 44.6398 53.872 40.2902C53.704 38.0583 53.9 35.9121 54.88 33.8804C56 31.6198 57.792 30.1032 60.032 29.1303C61.516 28.5008 63.084 27.9857 64.708 27.9857C67.144 27.9857 69.272 28.8441 71.26 30.2177C71.372 30.2749 71.428 30.3894 71.428 30.5038C71.484 31.6484 71.456 32.8217 71.456 34.0235ZM128.632 20.2596C128.604 20.5744 128.52 20.8605 128.492 21.1466C126.56 21.1466 124.6 21.1466 122.612 21.1466C122.584 20.8891 122.5 20.5744 122.472 20.2596C123.2 20.1451 123.9 20.0879 124.628 19.9734C124.628 16.3393 124.628 12.7052 124.628 9.07103C123.928 9.12826 123.256 9.2141 122.556 9.27133C122.528 8.95656 122.444 8.67042 122.416 8.38427C123.172 7.98365 126.028 7.29689 126.756 7.35412C126.812 8.12673 126.868 8.95657 126.924 9.78641C127.092 9.67195 127.204 9.61472 127.316 9.52887C128.492 8.72765 129.696 7.8978 130.872 7.12519C131.04 7.01073 131.264 6.9535 131.432 6.9535C131.908 6.9535 132.412 6.98212 132.888 7.06796C134.4 7.3255 135.128 8.15534 135.324 9.78641C135.38 10.3301 135.38 10.8738 135.436 11.4175C135.436 14.1359 135.436 16.883 135.436 19.63C135.436 19.9448 135.548 20.0593 135.828 20.0593C136.444 20.0879 137.116 20.2024 137.816 20.2596C137.788 20.5744 137.704 20.8605 137.676 21.1466C135.688 21.1466 133.756 21.1466 131.796 21.1466C131.768 20.8605 131.684 20.5744 131.656 20.2596C132.188 20.1451 132.664 20.0879 133.168 19.9734C133.168 19.8304 133.168 19.7159 133.168 19.5728C133.168 16.883 133.168 14.1932 133.168 11.5033C133.168 11.4461 133.168 11.3316 133.168 11.2458C133.112 9.21411 131.712 8.81349 130.368 9.18549C129.92 9.32856 129.5 9.52887 129.08 9.78641C128.464 10.1298 127.876 10.559 127.232 10.9882C127.12 11.0455 127.064 11.1886 127.064 11.3316C127.064 14.1359 127.064 16.9402 127.064 19.7731C127.064 19.9734 127.12 20.0593 127.316 20.0593C127.652 20.0879 128.1 20.2024 128.632 20.2596ZM164.108 8.58457C163.66 8.47011 163.24 8.38426 162.792 8.2698C162.82 7.95503 162.848 7.66888 162.932 7.38273C164.556 7.38273 166.18 7.38273 167.86 7.38273C167.888 7.64027 167.972 7.95503 168 8.2698C167.468 8.32703 166.992 8.44149 166.488 8.47011C166.208 8.49872 166.068 8.61318 165.956 8.89934C164.5 12.7624 163.072 16.6541 161.56 20.4885C160.552 22.978 159.46 25.4103 158.368 27.8998C158.34 27.9571 158.2 28.1002 158.116 28.1002C157.136 28.1002 156.128 28.1002 155.148 28.1002C155.148 27.2131 155.148 26.3546 155.148 25.4389C155.596 25.4389 156.044 25.4103 156.492 25.4389C157.108 25.4962 157.472 25.2672 157.78 24.7236C158.48 23.5217 159.208 22.3485 159.936 21.1753C159.964 21.118 160.048 21.0036 160.104 20.8891C159.908 20.9463 159.712 21.0036 159.488 21.0322C159.18 20.2596 158.9 19.487 158.592 18.6571C157.332 15.395 156.128 12.1329 154.896 8.8421C154.784 8.55595 154.644 8.44149 154.364 8.44149C153.832 8.38426 153.356 8.29842 152.852 8.24119C152.88 7.92642 152.964 7.64027 152.992 7.35412C155.036 7.35412 157.052 7.35412 159.124 7.35412C159.152 7.61165 159.236 7.92642 159.264 8.24119C158.564 8.35565 157.948 8.44149 157.248 8.55595C157.696 9.84364 158.116 11.0741 158.564 12.2759C159.096 13.7353 159.572 15.1661 160.076 16.5968C160.328 17.2836 160.468 17.9704 160.496 18.7144C160.496 18.8574 160.524 19.0005 160.636 19.1436C161.784 15.6811 162.932 12.1615 164.108 8.58457ZM108.976 14.5365C109.004 12.7052 109.424 10.9596 110.684 9.52887C111.748 8.29842 113.148 7.6975 114.66 7.18242C117.488 6.29535 120.68 7.95504 121.8 10.931C122.584 13.0485 122.584 15.2233 121.744 17.3122C120.876 19.4584 119.14 20.5743 117.04 21.2897C113.484 22.4629 109.732 20.0593 109.116 15.9673C109.06 15.4808 109.004 14.9944 108.976 14.5365ZM119.98 14.2504C119.952 13.9928 119.952 13.5064 119.868 13.0485C119.672 11.6178 119.14 10.3587 118.02 9.35718C116.424 7.89781 113.372 7.58304 112.084 10.6735C111.356 12.419 111.216 14.1931 111.636 15.9959C111.944 17.3694 112.56 18.5427 113.68 19.4297C115.304 20.6602 117.824 20.746 119.084 18.2565C119.728 17.0547 119.924 15.767 119.98 14.2504ZM84.42 47.6443C84.448 47.9591 84.476 48.2453 84.532 48.5887C83.412 48.789 82.32 49.0179 81.2 49.2754C80.92 48.5314 80.64 47.816 80.332 47.0434C80.22 47.1007 80.136 47.1865 80.024 47.2437C79.044 47.9877 78.036 48.7317 77.084 49.4471C76.944 49.5616 76.748 49.6188 76.552 49.6188C75.628 49.5902 74.704 49.3327 73.976 48.7317C72.688 47.7016 72.352 45.7271 73.108 44.1247C73.388 43.5524 73.78 43.1804 74.396 42.9801C76.188 42.4078 78.008 41.7496 79.8 41.1487C80.052 41.0915 80.136 40.977 80.108 40.6909C80.08 39.8896 80.136 39.0312 80.052 38.2013C79.912 36.9709 79.296 36.513 78.064 36.6561C77.364 36.7133 76.72 36.9423 76.02 37.1139C75.88 37.1426 75.74 37.3143 75.712 37.4573C75.544 38.0582 75.404 38.6592 75.264 39.2887C74.564 39.2887 73.864 39.2887 73.164 39.2887C73.164 38.6019 73.164 37.9724 73.164 37.3429C73.164 37.2856 73.276 37.1712 73.332 37.1426C74.9 36.4272 76.412 35.6832 77.98 34.9964C78.036 34.9678 78.148 34.9392 78.232 34.9678C78.82 34.9964 79.408 34.9964 79.968 35.1109C81.452 35.397 82.152 36.141 82.32 37.6576C82.376 38.373 82.46 39.0312 82.46 39.7465C82.46 41.721 82.46 43.7527 82.46 45.7271C82.46 46.3281 82.516 46.929 82.852 47.4154C82.908 47.5299 83.104 47.6157 83.244 47.6157C83.58 47.6443 84 47.6443 84.42 47.6443ZM80.108 42.1502C79.94 42.2075 79.828 42.2647 79.716 42.2933C78.456 42.837 77.224 43.3807 75.936 43.8958C75.488 44.0674 75.236 44.3822 75.096 44.8401C74.928 45.3837 74.956 45.8988 75.096 46.3853C75.292 47.1579 75.852 47.6157 76.664 47.5871C77.112 47.5585 77.588 47.4727 77.98 47.2724C78.68 46.8717 79.324 46.3853 79.996 45.9274C80.052 45.8988 80.136 45.7844 80.136 45.6699C80.108 44.5253 80.108 43.3521 80.108 42.1502ZM125.888 47.6443C125.468 47.6443 125.104 47.6157 124.712 47.6443C124.46 47.6443 124.376 47.5299 124.264 47.3582C123.984 46.7859 123.928 46.1564 123.928 45.5268C123.928 43.4665 123.928 41.3776 123.928 39.3173C123.928 38.5733 123.816 37.8007 123.676 37.0567C123.536 36.3413 123.2 35.7404 122.528 35.397C121.604 34.9392 120.624 34.9106 119.616 34.9392C119.56 34.9392 119.504 34.9678 119.448 34.9964C117.936 35.7118 116.368 36.4272 114.828 37.1139C114.772 37.1426 114.66 37.257 114.632 37.3143C114.632 37.9438 114.632 38.6019 114.632 39.2601C115.332 39.2601 115.948 39.2601 116.62 39.2601C116.676 39.2601 116.788 39.117 116.816 39.0598C116.956 38.5161 117.096 37.9724 117.236 37.4001C117.264 37.2856 117.376 37.1139 117.432 37.1139C118.216 36.9423 119.028 36.6847 119.868 36.6275C120.904 36.5703 121.464 37.0853 121.576 38.1441C121.632 39.0026 121.604 39.8324 121.632 40.6909C121.632 40.9484 121.52 41.0056 121.324 41.0915C119.476 41.721 117.684 42.3792 115.836 42.9801C115.22 43.1804 114.828 43.5524 114.576 44.1247C113.876 45.5841 114.044 47.2724 115.052 48.3883C115.892 49.304 116.984 49.5902 118.16 49.6188C118.272 49.6188 118.412 49.5616 118.496 49.4757C119.224 48.932 119.952 48.417 120.68 47.8447C121.016 47.5871 121.38 47.301 121.744 47.0434C122.052 47.816 122.332 48.5314 122.612 49.2754C123.732 49.0751 124.824 48.8462 125.944 48.6459C125.972 48.2453 125.916 47.9305 125.888 47.6443ZM121.604 45.6985C121.604 45.7557 121.548 45.8702 121.464 45.8988C120.848 46.3567 120.204 46.8145 119.56 47.2151C118.972 47.5585 118.356 47.7588 117.656 47.5299C117.18 47.3868 116.872 47.072 116.648 46.6142C116.396 45.9847 116.396 45.2979 116.62 44.6684C116.76 44.2678 116.956 44.0388 117.376 43.8671C118.664 43.3235 119.952 42.7798 121.268 42.2361C121.38 42.2075 121.464 42.1788 121.604 42.093C121.632 43.3521 121.632 44.5253 121.604 45.6985ZM84.364 11.303C84.364 10.6162 84.364 9.98672 84.364 9.3858C84.364 9.32857 84.476 9.18549 84.56 9.12825C86.072 8.41287 87.612 7.64026 89.18 7.01073C89.6 6.83904 90.16 6.98212 90.636 6.98212C90.832 6.98212 91.056 7.01073 91.252 7.09658C92.736 7.41134 93.464 8.2698 93.548 9.98671C93.604 12.2759 93.604 14.5938 93.66 16.9402C93.66 17.4267 93.688 17.9704 93.716 18.4568C93.716 18.5999 93.744 18.7144 93.772 18.8574C93.968 19.63 94.052 19.7159 94.836 19.7159C95.088 19.7159 95.312 19.7159 95.592 19.7159C95.62 20.0307 95.648 20.3168 95.704 20.6316C94.584 20.8319 93.492 21.0608 92.372 21.2611C92.092 20.5171 91.812 19.8017 91.504 19.0291C91.364 19.1436 91.252 19.2008 91.168 19.2867C90.188 20.002 89.236 20.746 88.256 21.4328C88.144 21.49 88.004 21.6045 87.92 21.6045C86.576 21.6045 85.316 21.2039 84.532 20.002C83.692 18.7716 83.692 17.4267 84.364 16.0245C84.616 15.4522 84.98 15.1375 85.568 14.9372C87.416 14.3648 89.208 13.7067 91 13.1058C91.28 12.9913 91.392 12.9055 91.336 12.6193C91.308 11.8467 91.308 11.0741 91.28 10.3301C91.224 9.12826 90.608 8.55596 89.432 8.67042C88.676 8.72765 87.948 8.95656 87.192 9.12825C87.08 9.15687 86.94 9.32856 86.912 9.44302C86.772 9.98671 86.632 10.5304 86.492 11.0741C86.464 11.1886 86.324 11.2744 86.24 11.2744C85.708 11.3602 85.064 11.303 84.364 11.303ZM91.42 14.1932C91.252 14.2504 91.112 14.3076 91 14.3648C89.712 14.9085 88.424 15.4522 87.164 15.9959C86.856 16.139 86.604 16.3107 86.492 16.6254C86.184 17.3694 86.184 18.1421 86.52 18.8574C86.716 19.2867 87.08 19.487 87.5 19.63C88.228 19.8017 88.844 19.6014 89.488 19.2008C90.076 18.8002 90.664 18.3996 91.252 17.999C91.308 17.9417 91.42 17.8273 91.42 17.7128C91.42 16.5396 91.42 15.395 91.42 14.1932ZM131.068 47.9591C131.852 48.0736 132.58 48.1308 133.392 48.2453C133.364 48.5314 133.364 48.789 133.28 48.9893C133.252 49.1037 133.084 49.161 132.944 49.161C132.104 49.161 131.32 49.1037 130.48 49.1037C129.416 49.1037 128.296 49.1323 127.232 49.161C127.092 49.161 126.952 49.161 126.784 49.161C126.756 48.8462 126.672 48.5887 126.644 48.2453C127.344 48.1308 128.016 48.0736 128.744 47.9591C128.744 41.9785 128.744 35.998 128.744 30.0174C128.044 30.0174 127.4 30.0174 126.672 30.0174C126.644 29.7312 126.56 29.4451 126.532 29.1017C128.044 28.7583 129.472 28.0429 131.096 28.0715C131.068 34.7103 131.068 41.349 131.068 47.9591ZM109.396 31.7343C109.396 33.022 109.396 34.3097 109.396 35.626C110.88 35.626 112.364 35.626 113.876 35.626C113.876 36.0552 113.876 36.4272 113.876 36.8564C112.392 36.8564 110.936 36.8564 109.452 36.8564C109.452 37.0281 109.424 37.1426 109.424 37.2856C109.424 40.0041 109.424 42.7511 109.424 45.4696C109.424 45.7271 109.452 45.9561 109.48 46.2136C109.592 46.9862 110.068 47.444 110.824 47.5013C111.496 47.5299 112.084 47.3582 112.7 47.072C112.868 47.0148 113.092 46.9004 113.288 46.8145C113.428 47.1007 113.568 47.3868 113.736 47.7016C113.008 48.1308 112.308 48.56 111.58 48.932C111.44 49.0465 111.272 49.1037 111.132 49.2182C109.984 49.905 108.92 49.5616 107.884 49.0179C107.296 48.7031 107.212 48.0163 107.156 47.3868C107.128 46.929 107.128 46.4711 107.128 46.0133C107.128 43.1518 107.128 40.2902 107.128 37.4001C107.128 37.257 107.128 37.0853 107.128 36.9136C106.204 36.9136 105.252 36.9136 104.356 36.9136C104.244 36.5989 104.328 36.37 104.524 36.141C104.972 35.5687 105.532 35.2826 106.26 35.4257C106.568 35.4543 106.876 35.4257 107.268 35.4257C107.268 34.882 107.24 34.3669 107.268 33.8804C107.268 33.6801 107.38 33.4512 107.464 33.3081C107.8 32.8503 108.22 32.4211 108.612 31.9918C108.864 31.6484 108.864 31.6484 109.396 31.7343ZM78.008 7.29688C78.008 8.52734 78.008 9.70056 78.008 10.931C78.484 10.3587 78.988 9.84364 79.436 9.27133C79.996 8.58457 80.584 7.92642 81.144 7.29688C81.256 7.18242 81.452 7.09658 81.62 7.09658C82.236 7.06796 82.88 7.09658 83.524 7.09658C83.524 7.98365 83.524 8.8421 83.524 9.72918C82.992 9.72918 82.488 9.70056 82.012 9.72918C81.676 9.75779 81.312 9.84364 81.032 9.98671C79.884 10.5876 78.988 11.4747 78.26 12.5335C78.204 12.5907 78.148 12.7338 78.148 12.8196C78.148 15.1088 78.148 17.4267 78.148 19.7159C78.148 19.7731 78.148 19.8304 78.176 19.9162C79.156 20.0307 80.164 20.0879 81.116 20.2024C81.088 20.5457 81.004 20.9177 80.976 21.2039C78.624 21.2039 76.272 21.2039 73.92 21.2039C73.892 20.9177 73.808 20.6316 73.78 20.3168C74.396 20.2596 74.984 20.1451 75.628 20.1165C75.824 20.0879 75.936 20.002 75.936 19.8017C75.936 16.3393 75.936 12.8482 75.936 9.3858C75.936 9.32857 75.936 9.27133 75.908 9.18549C75.208 9.24272 74.508 9.32857 73.808 9.35718C73.78 9.04241 73.696 8.75626 73.668 8.41287C75.096 8.01226 76.44 7.38273 78.008 7.29688ZM105.14 48.2453C105.112 48.56 105.028 48.8462 105 49.1323C104.3 49.1323 103.6 49.1323 102.928 49.1323C101.64 49.1323 100.352 49.161 99.036 49.161C98.476 49.161 98.476 49.161 98.364 48.6173C98.336 48.5028 98.336 48.3597 98.336 48.2739C99.036 48.1594 99.736 48.1022 100.436 47.9877C100.436 44.3822 100.436 40.7767 100.436 37.1139C99.736 37.1426 99.036 37.2284 98.336 37.257C98.308 36.9423 98.224 36.6561 98.196 36.3413C99.708 35.998 101.164 35.2826 102.816 35.3112C102.816 39.5749 102.816 43.7813 102.816 47.9877C103.6 48.0736 104.328 48.1308 105.14 48.2453ZM101.276 33.4226C101.22 33.4226 101.164 33.4512 101.108 33.4512C100.492 33.4798 100.324 33.3081 100.212 32.6786C100.1 31.9918 100.156 31.3337 100.324 30.6469C100.352 30.5324 100.436 30.3894 100.492 30.3894C101.248 30.3608 102.06 30.1318 102.816 30.3608C102.928 30.3894 103.012 30.5324 103.012 30.6183C103.152 31.4195 103.152 32.2494 102.9 33.0506C102.872 33.165 102.732 33.2509 102.648 33.2509C102.2 33.3367 101.724 33.3654 101.276 33.4226Z" fill="#001C24"/>
</svg>
