<svg width="198" height="96" viewBox="0 0 198 96" fill="none" xmlns="http://www.w3.org/2000/svg">
<path fill-rule="evenodd" clip-rule="evenodd" d="M30.0419 50.0363C30.0419 47.0342 32.3278 44.7917 35.2532 44.7917C38.2752 44.7917 40.5033 47.0534 40.5033 50.0171C40.5033 53 38.2365 55.2617 35.2532 55.2617C32.27 55.2617 30.0419 53.0384 30.0419 50.0363ZM32.3862 50.037C32.3862 51.7916 33.607 53.0981 35.273 53.0981C36.9389 53.0981 38.159 51.7916 38.159 50.037C38.159 48.2824 36.9389 46.9567 35.2532 46.9567C33.5873 46.9567 32.3862 48.2625 32.3862 50.037ZM42.5955 47.0734H41.1422V44.9866H44.9201V55.0675H42.5955V47.0734ZM26.7487 48.8471C26.381 47.7163 25.4124 46.956 24.1917 46.956C22.5067 46.956 21.3444 48.2625 21.3437 50.037C21.3437 51.7916 22.525 53.0981 24.2107 53.0981C25.4314 53.0981 26.4 52.3179 26.7487 51.1871H29.1903C28.7444 53.6245 26.7297 55.2624 24.2114 55.2624C21.2282 55.2624 19.0001 53.0398 19.0001 50.037C19.0001 47.0342 21.2859 44.7917 24.2114 44.7917C26.7875 44.7917 28.7634 46.4297 29.2093 48.8471H26.7487ZM83.0967 48.8088L84.8014 49.0619C86.7196 49.3542 87.9396 50.2902 87.9396 52.0839C87.9396 54.0924 86.2546 55.2624 83.7166 55.2624C80.9271 55.2624 79.3971 53.8784 79.1836 51.909H81.4695C81.5857 52.7667 82.3606 53.3321 83.7363 53.3321C84.8599 53.3321 85.6735 53.0007 85.6735 52.2013C85.6735 51.5776 85.2086 51.2454 84.3752 51.1288L82.6705 50.8756C80.5206 50.5641 79.4548 49.569 79.4548 47.8536C79.4548 46.0599 81.082 44.7925 83.5426 44.7925C85.9249 44.7925 87.4747 45.9816 87.7269 48.0093H85.4798C85.3248 47.2099 84.6077 46.7227 83.4841 46.7227C82.4578 46.7227 81.7019 47.0734 81.7019 47.7753C81.7019 48.419 82.2831 48.6921 83.0967 48.8088ZM42.2658 42.3152C42.2658 41.4575 42.9054 40.8338 43.7578 40.8338C44.6101 40.8338 45.2498 41.4575 45.2498 42.3152C45.2498 43.173 44.6101 43.7967 43.7578 43.7967C42.9047 43.7967 42.2658 43.173 42.2658 42.3152ZM73.2559 44.7925C76.0454 44.7925 77.3627 46.2547 77.3627 48.4382H77.3634V52.9815H78.5067V55.0675H77.1507C76.1236 55.0675 75.3875 54.4239 75.31 53.4296C74.7866 54.5412 73.7405 55.2432 72.0746 55.2432C69.9437 55.2432 68.6067 54.074 68.6067 52.2603C68.6067 49.9204 70.815 49.2967 72.5972 49.1018C73.9145 48.9652 74.9803 48.7512 74.9803 47.9126C74.9803 47.269 74.3992 46.7427 73.2171 46.7427C71.8999 46.7427 71.28 47.4055 71.1637 48.2049H68.8581C69.1491 46.1381 70.6213 44.7925 73.2559 44.7925ZM72.5 53.313C73.9145 53.313 75.0768 52.3187 75.0768 50.973V49.9987C74.7859 50.4474 74.2047 50.6814 73.1587 50.7789C72.0738 50.8955 70.8918 51.1686 70.8918 52.1629C70.8918 52.9424 71.6279 53.313 72.5 53.313ZM59.8336 46.254C60.6085 45.338 61.6933 44.7917 62.9915 44.7917C65.7423 44.7917 67.8929 47.0342 67.8929 50.037C67.8929 53.0398 65.7811 55.2624 62.9915 55.2624C61.6743 55.2624 60.5697 54.697 59.7949 53.7418V55.0675H57.509V40.7363H59.8336V46.254ZM59.7561 50.037C59.7561 51.7916 60.9769 53.0981 62.6429 53.0981C64.3088 53.0981 65.5289 51.7916 65.5289 50.037C65.5289 48.2633 64.3476 46.9567 62.6619 46.9567C60.9959 46.9567 59.7561 48.2824 59.7561 50.037ZM49.1234 46.2931C49.7045 45.4155 50.6928 44.7917 52.2038 44.7917C54.7419 44.7917 56.0394 46.5854 56.0387 49.121V55.0675H53.7141V49.2959C53.7141 47.9112 52.8815 46.956 51.5444 46.956C50.1109 46.956 49.1424 48.0477 49.1424 49.5882V55.0668H46.8178V44.9866H49.1234V46.2931ZM93.8647 44.7925C96.6739 44.7925 98.7661 46.8202 98.7661 49.7056H98.7654V50.6025H91.0744C91.3259 52.2404 92.4494 53.1764 93.9414 53.1764C95.0847 53.1764 95.9371 52.6693 96.2858 51.7724H98.7076C98.2237 53.8193 96.3252 55.2624 93.9034 55.2624C91.0364 55.2624 88.6921 53.1764 88.6921 50.037C88.6921 47.0542 90.8814 44.7925 93.8647 44.7925ZM93.8259 46.8394C92.6249 46.8394 91.5788 47.5214 91.2104 48.9254H96.383C96.1505 47.5997 95.1432 46.8394 93.8259 46.8394ZM177.215 47.7378H178.494C178.475 47.1876 178.446 46.9545 178.247 46.5628C178.058 46.1619 177.792 45.8308 177.451 45.5697C177.12 45.3086 176.732 45.1175 176.286 44.9962C175.841 44.875 175.358 44.8144 174.837 44.8144C174.373 44.8144 173.918 44.875 173.473 44.9962C173.038 45.1081 172.645 45.2853 172.294 45.5278C171.953 45.7609 171.678 46.064 171.47 46.437C171.262 46.8006 171.158 47.2342 171.158 47.7378C171.158 48.1947 171.247 48.577 171.427 48.8847C171.617 49.1831 171.863 49.4303 172.166 49.6261C172.479 49.8126 172.829 49.9664 173.218 50.0877C173.606 50.1996 173.999 50.3021 174.397 50.3954C174.804 50.4793 175.202 50.5632 175.59 50.6472C175.979 50.7311 176.324 50.843 176.627 50.9829C176.94 51.1134 177.186 51.2859 177.366 51.5004C177.556 51.7149 177.65 51.9946 177.65 52.3396C177.65 52.7033 177.574 53.0017 177.423 53.2348C177.271 53.4679 177.073 53.6544 176.826 53.7943C176.58 53.9249 176.301 54.0181 175.988 54.0741C175.685 54.13 175.382 54.158 175.079 54.158C174.7 54.158 174.33 54.1114 173.971 54.0181C173.611 53.9249 173.293 53.7803 173.019 53.5845C172.753 53.3887 172.536 53.1416 172.365 52.8432L172.33 52.7766C172.198 52.5273 172.165 52.4648 172.165 52.0775H170.887C170.887 52.6836 170.954 52.8851 171.172 53.3327C171.399 53.771 171.702 54.1347 172.081 54.4238C172.469 54.7035 172.914 54.9133 173.416 55.0532C173.928 55.1931 174.468 55.263 175.036 55.263C175.5 55.263 175.964 55.207 176.428 55.0951C176.902 54.9926 177.328 54.8247 177.707 54.5916C178.086 54.3492 178.394 54.0414 178.631 53.6684C178.877 53.2861 179 52.8292 179 52.2977C179 51.8034 178.905 51.3932 178.716 51.0668C178.536 50.7404 178.29 50.47 177.977 50.2555C177.674 50.041 177.328 49.8732 176.94 49.752C176.552 49.6214 176.154 49.5095 175.746 49.4163C175.349 49.323 174.956 49.2391 174.567 49.1645C174.179 49.0806 173.828 48.978 173.516 48.8568C173.213 48.7355 172.967 48.5817 172.777 48.3952C172.597 48.1994 172.507 47.9476 172.507 47.6399C172.507 47.3135 172.569 47.0431 172.692 46.8286C172.825 46.6048 172.995 46.4276 173.203 46.2971C173.421 46.1665 173.667 46.0733 173.942 46.0173C174.217 45.9614 174.496 45.9334 174.78 45.9334C175.481 45.9334 176.054 46.0966 176.499 46.423C176.954 46.74 177.139 47.0198 177.215 47.7378ZM108.968 55.0817H107.408L103.953 44.9667H105.392L108.196 53.7017L111.344 44.9667H112.782L108.968 55.0817ZM120.978 55.0817H114.361V44.9667H120.978V46.0889H115.618V49.3494H120.872V50.4716H115.618V53.9595H120.978V55.0817ZM129.873 55.0817H131.084V44.9667H129.828V52.8676L124.663 44.9667H123.376V55.0817H124.632V47.014L129.873 55.0817ZM137.456 55.0817H136.199V46.0889H133.005V44.9667H140.666V46.0889H137.456V55.0817ZM142.591 51.154C142.591 53.641 143.554 55.2637 146.294 55.2637C149.035 55.2637 150.117 53.6562 150.117 51.1388V44.9667H148.86V51.1236C148.86 52.9738 148.156 54.1415 146.294 54.1415C144.432 54.1415 143.848 52.9738 143.848 51.1236V44.9667H142.591V51.154ZM160.565 55.0817H158.827L154.195 51.0632V55.0817H152.938V44.9667H156.767C158.614 44.9667 159.928 46.1496 159.928 48.0149C159.928 49.223 159.33 50.2075 158.017 50.6765C157.352 50.9139 156.475 50.9568 155.723 50.9568L160.565 55.0817ZM156.36 49.956C157.762 49.956 158.754 49.1522 158.754 48.0149C158.754 46.8775 157.811 46.0889 156.615 46.0889H154.195V49.956H156.36ZM162.659 55.0817H169.276V53.9595H163.916V50.4716H169.17V49.3494H163.916V46.0889H169.276V44.9667H162.659V55.0817Z" fill="#001C24"/>
</svg>
