<svg width="23" height="22" viewBox="0 0 23 22" fill="none" xmlns="http://www.w3.org/2000/svg">
<path fill-rule="evenodd" clip-rule="evenodd" d="M11.1428 0.294084C11.3641 0.167597 11.6359 0.167597 11.8572 0.294084L21.9372 6.05408C22.1616 6.18227 22.3 6.42084 22.3 6.67922V7.71586C22.3 14.2426 17.9734 19.9785 11.6978 21.7715C11.5685 21.8085 11.4315 21.8085 11.3022 21.7715C5.02664 19.9785 0.700012 14.2426 0.700012 7.71586V6.67922C0.700012 6.42084 0.838458 6.18227 1.06279 6.05408L11.1428 0.294084ZM10.8834 15.6226L17.1023 7.849L15.9778 6.94944L10.6767 13.5759L6.92098 10.4461L5.99911 11.5523L10.8834 15.6226Z" fill="white"/>
</svg>
