<svg width="61" height="60" viewBox="0 0 61 60" fill="none" xmlns="http://www.w3.org/2000/svg">
<g clip-path="url(#clip0_1_3170)">
<circle cx="30.5" cy="30" r="30" fill="#001C24"/>
<path d="M35.735 26.445C35.465 22.26 33.77 18.18 30.59 15C27.38 18.21 25.61 22.29 25.265 26.445C27.185 27.465 28.955 28.785 30.5 30.39C32.045 28.8 33.815 27.48 35.735 26.445ZM30.575 19.785C31.52 21.33 32.18 23.055 32.525 24.855C31.82 25.305 31.16 25.8 30.515 26.325C29.885 25.815 29.21 25.32 28.52 24.87C28.895 23.07 29.585 21.345 30.575 19.785ZM30.5 35.175C29.27 33.3 27.71 31.665 25.91 30.375C25.715 30.24 25.505 30.135 25.31 29.985C25.505 30.12 25.715 30.24 25.895 30.36C22.97 28.245 19.385 27 15.5 27C15.5 34.98 20.54 41.73 27.545 44.235C28.49 44.58 29.48 44.835 30.5 45C31.52 44.82 32.495 44.565 33.455 44.235C40.46 41.73 45.5 34.98 45.5 27C39.23 27 33.725 30.255 30.5 35.175ZM32.48 41.4C31.82 41.625 31.16 41.805 30.485 41.955C29.825 41.82 29.18 41.64 28.565 41.415C23.63 39.645 20.015 35.43 18.89 30.39C20.54 30.78 22.115 31.455 23.57 32.385L23.54 32.4C23.735 32.535 23.93 32.67 24.125 32.775L24.23 32.835C25.715 33.915 26.99 35.25 27.995 36.81L30.5 40.65L33.005 36.825C34.04 35.25 35.33 33.9 36.8 32.835L36.905 32.76C37.04 32.685 37.175 32.595 37.31 32.505L37.295 32.475C38.765 31.5 40.4 30.78 42.11 30.375C40.985 35.43 37.385 39.645 32.48 41.4ZM25.985 30.42C25.955 30.405 25.925 30.375 25.91 30.36C25.91 30.36 25.925 30.36 25.925 30.375C25.94 30.39 25.955 30.405 25.985 30.42Z" fill="white"/>
</g>
<defs>
<clipPath id="clip0_1_3170">
<rect width="60" height="60" fill="white" transform="translate(0.5)"/>
</clipPath>
</defs>
</svg>
