<svg width="28" height="28" viewBox="0 0 28 28" fill="none" xmlns="http://www.w3.org/2000/svg">
<path fill-rule="evenodd" clip-rule="evenodd" d="M0 14C0 6.26801 6.26801 0 14 0C21.732 0 28 6.26801 28 14C28 21.732 21.732 28 14 28C6.26801 28 0 21.732 0 14ZM9.89365 11.5957H6.72095V21.1284H9.89365V11.5957ZM10.1026 8.64657C10.082 7.7119 9.41363 7 8.32827 7C7.24291 7 6.53333 7.7119 6.53333 8.64657C6.53333 9.56189 7.22193 10.2943 8.28708 10.2943H8.30736C9.41363 10.2943 10.1026 9.56189 10.1026 8.64657ZM21.3356 15.6619C21.3356 12.7338 19.7704 11.3711 17.6826 11.3711C15.9981 11.3711 15.244 12.2963 14.8229 12.9454V11.5952H11.6498C11.6916 12.4897 11.6498 21.1279 11.6498 21.1279H14.8229V15.804C14.8229 15.5191 14.8435 15.2349 14.9273 15.0309C15.1566 14.4618 15.6787 13.8725 16.5553 13.8725C17.7038 13.8725 18.1629 14.7466 18.1629 16.0276V21.1276H21.3355L21.3356 15.6619Z" fill="#031B23"/>
</svg>
