<svg width="198" height="81" viewBox="0 0 198 81" fill="none" xmlns="http://www.w3.org/2000/svg">
<mask id="mask0_1_8812" style="mask-type:alpha" maskUnits="userSpaceOnUse" x="26" y="17" width="46" height="27">
<path d="M26.3116 17.0005H71.6605V43.3659H26.3116V17.0005Z" fill="white"/>
</mask>
<g mask="url(#mask0_1_8812)">
<path fill-rule="evenodd" clip-rule="evenodd" d="M26.3031 30.1832V43.3659H31.377V33.1325L48.9819 22.8992L66.5868 33.1325V43.3659H71.6607V30.1832L48.9819 17.0005L26.3031 30.1832Z" fill="#001C24"/>
</g>
<path fill-rule="evenodd" clip-rule="evenodd" d="M61.2718 50.8057L48.6699 58.1151L36.0679 50.8057V43.4966H30.9627V53.7481L48.6699 63.9997L66.3771 53.7481V43.4966H61.2718V50.8057Z" fill="#001C24"/>
<path fill-rule="evenodd" clip-rule="evenodd" d="M41.6477 39.06L49.136 34.6228L56.6243 39.06V43.4978H61.7174V36.0422L49.136 28.5864L36.5545 36.0422V43.4978H41.6477V39.06Z" fill="#001C24"/>
<path fill-rule="evenodd" clip-rule="evenodd" d="M41.2143 47.6903L48.6699 51.8842L56.1256 47.6903V43.4966H41.2143V47.6903Z" fill="#001C24"/>
<path fill-rule="evenodd" clip-rule="evenodd" d="M166.967 47.8532C166.967 50.4049 164.888 52.5555 162.351 52.5555C159.85 52.5555 157.771 50.4049 157.771 47.8532V39.1412C157.771 36.5896 159.85 34.4389 162.316 34.4389C164.888 34.4389 166.967 36.5532 166.967 39.1778V47.8532ZM162.351 29.5178C157.207 29.5178 153.049 33.8193 153.049 39.1412V47.8532C153.049 53.1753 157.207 57.4766 162.351 57.4766C167.495 57.4766 171.688 53.1753 171.688 47.8532V39.1412C171.688 33.8193 167.495 29.5178 162.351 29.5178Z" fill="#001C24"/>
<path fill-rule="evenodd" clip-rule="evenodd" d="M121.111 52.3158H115.255V45.72H121.049C122.812 45.72 124.266 47.2033 124.297 49.0654C124.297 50.8641 122.843 52.3158 121.111 52.3158ZM115.262 34.6786H120.196C121.928 34.6786 123.381 36.1301 123.381 37.929C123.35 39.7909 121.897 41.2742 120.134 41.2742H115.262V34.6786ZM125.754 43.0861C125.754 43.0856 125.753 43.0851 125.752 43.0847C127.071 41.7245 127.903 39.8861 127.903 37.8659C127.903 33.7633 124.656 30.4497 120.667 30.4497H111.118V43.496C111.114 43.4966 111.111 43.497 111.111 43.497V56.5445H121.582C125.571 56.5445 128.818 53.2309 128.818 49.1284C128.818 46.897 127.712 44.5926 125.754 43.0861Z" fill="#001C24"/>
<path fill-rule="evenodd" clip-rule="evenodd" d="M130.682 35.4113L137.897 35.4088V56.5445H142.965V35.4088L150.253 35.4113V30.4497H130.682V35.4113Z" fill="#001C24"/>
<path fill-rule="evenodd" clip-rule="evenodd" d="M101.363 33.3583L96.6657 40.0643L91.9686 33.3583V30.4497H86.8802V34.7246L93.6203 43.5325L86.8802 52.6004V56.5445H91.9686V53.8518L96.6657 47.2053L101.363 53.8518V56.5445H106.451V52.6004L99.7113 43.5325L106.451 34.7246V30.4497H101.363V33.3583Z" fill="#001C24"/>
</svg>
