<svg width="50" height="39" viewBox="0 0 50 39" fill="none" xmlns="http://www.w3.org/2000/svg">
<path d="M27.5727 8.71368C27.5727 6.38979 28.5421 4.35639 30.481 2.61347C32.3826 0.870551 34.6383 -0.000909241 37.2483 -0.000909013C41.3497 -0.000908654 44.5004 1.32444 46.7002 3.97513C48.9001 6.62582 50 10.2932 50 14.9773C50 19.3346 48.1171 23.7282 44.3512 28.1581C40.5481 32.588 35.9806 35.9468 30.6488 38.2344L28.1879 34.3673C32.4012 32.3702 35.701 30.0463 38.0873 27.3956C40.4735 24.7449 41.8531 21.5314 42.226 17.7551L39.094 17.7551C36.7823 17.7551 34.8993 17.5009 33.4452 16.9926C31.9911 16.4842 30.8166 15.7761 29.9217 14.8684C29.0641 13.9969 28.4676 13.0347 28.132 11.9817C27.7591 10.9286 27.5727 9.83932 27.5727 8.71368ZM6.39548e-06 8.71368C6.59864e-06 6.38979 0.969432 4.35638 2.90829 2.61347C4.80985 0.870548 7.06563 -0.000911651 9.67562 -0.000911423C13.777 -0.000911065 16.9277 1.32443 19.1275 3.97513C21.3274 6.62581 22.4273 10.2932 22.4273 14.9773C22.4273 19.3346 20.5444 23.7282 16.7785 28.1581C12.9754 32.588 8.40791 35.9468 3.07607 38.2344L0.615212 34.3673C4.82849 32.3702 8.12827 30.0463 10.5145 27.3956C12.9008 24.7449 14.2804 21.5314 14.6532 17.7551L11.5213 17.7551C9.20955 17.7551 7.32663 17.5009 5.87249 16.9925C4.41835 16.4842 3.24385 15.7761 2.349 14.8684C1.49143 13.9969 0.894858 13.0347 0.55929 11.9817C0.186434 10.9286 6.29707e-06 9.83932 6.39548e-06 8.71368Z" fill="white"/>
</svg>
